<?xml version="1.0" standalone="no"?><!DOCTYPE svg PUBLIC "-//W3C//DTD SVG 1.1//EN" "http://www.w3.org/Graphics/SVG/1.1/DTD/svg11.dtd"><svg t="1716641408196" class="icon" viewBox="0 0 1024 1024" version="1.1" xmlns="http://www.w3.org/2000/svg" p-id="4005" xmlns:xlink="http://www.w3.org/1999/xlink" width="200" height="200"><path d="M936.3 723.5L782.4 530.2c-17.7-22.3-53.7-9.7-53.7 18.8 0 64.7-21 124.6-56.6 173.2-65-19.2-133.5-61.4-190.9-145.3 101.2-8.7 179.5-43.7 233.1-104.6 65.8-74.7 75.9-167.8 76.1-217h49.3c16.6 0 30.1-13.5 30.1-30.1s-13.5-30.1-30.1-30.1h-49.4v-43.7c0-16.6-13.5-30.1-30.1-30.1s-30.1 13.5-30.1 30.1V195H441C247.2 195 84.8 348.3 81.2 542.1 77.4 740.4 237.6 902.9 435 902.9c102.6 0 195.2-43.9 259.9-113.9 12.1 2.2 23.9 3.8 35.1 4.9 106.7 10.3 190.3-22.2 193.8-23.6 18.9-7.5 25.1-31 12.5-46.8zM267.6 307.7l111.1 211.1H143c8.9-87.3 56.1-163.4 124.6-211.1zM142.8 579h231.8l-163 160.2c-37.7-44.1-62.5-99.4-68.8-160.2z m262.8 262.2c-56.4-5.6-108.1-27.3-150.5-60.3l150.5-147.8v208.1z m-85.3-562.7c35.3-15 74-23.3 114.7-23.3h295c-0.3 40-8.5 117.8-61.3 177.6-47.8 54-122.5 82.8-222.1 85.7l-126.3-240zM465.8 841V655.5c51.4 59.3 108.2 94.6 162 114.8-44.3 38.7-100.3 64.2-162 70.7z m270.6-106.5c20.6-33.3 35.8-70.3 44.4-109.7l80.6 101.3c-30.2 6.8-74.6 13.2-125 8.4z" fill="#27A5EB" p-id="4006"></path><path d="M534.1 313.4c-20 0-36.3 16.2-36.3 36.3 0 20 16.2 36.3 36.3 36.3 20 0 36.3-16.2 36.3-36.3 0-20-16.3-36.3-36.3-36.3z" fill="#27A5EB" p-id="4007"></path></svg>